# xmcd
#
# Track frame offsets:
#	150
#	22521
#	50241
#	75348
#	104619
#	131149
#	151984
#	170631
#	185995
#	222763
#
# Disc length: 3188 seconds
#
# Revision: 1
# Processed by: cddbd v1.4b41PL1 Copyright (c) Steve Scherf et al.
# Submitted via: audiograbber 1.80
#
DISCID=860c720a
DTITLE=Smokin' Grass - In The Barn
DYEAR=1900
DGENRE=
TTITLE0=Country Boy Rock and Roll
TTITLE1=The Tow Truck Song
TTITLE2=Syracuse Stop
TTITLE3=Big Question
TTITLE4=California Waltz
TTITLE5=Open Road
TTITLE6=Cattle in the Cane
TTITLE7=Mixed-Up Confusion
TTITLE8=Arizona
TTITLE9=Mercury
EXTD=
EXTT0=
EXTT1=
EXTT2=
EXTT3=
EXTT4=
EXTT5=
EXTT6=
EXTT7=
EXTT8=
EXTT9=
PLAYORDER=
